<?xml version="1.0" standalone="no"?>
<!DOCTYPE svg PUBLIC "-//W3C//DTD SVG 20010904//EN"
 "http://www.w3.org/TR/2001/REC-SVG-20010904/DTD/svg10.dtd">
<svg version="1.0" xmlns="http://www.w3.org/2000/svg"
 width="700.000000pt" height="1280.000000pt" viewBox="0 0 700.000000 1280.000000"
 preserveAspectRatio="xMidYMid meet">
<metadata>
Created by potrace 1.15, written by Peter Selinger 2001-2017
</metadata>
<g transform="translate(0.000000,1280.000000) scale(0.100000,-0.100000)"
fill="#000000" stroke="none">
<path d="M1829 12780 c-58 -31 -73 -63 -79 -165 l-5 -90 -827 -5 c-811 -5
-827 -5 -854 -25 -58 -44 -65 -73 -62 -257 3 -190 9 -205 88 -245 l44 -23
2926 0 c1889 0 2938 4 2960 10 20 5 51 26 70 45 l35 36 3 177 c2 163 1 180
-18 210 -11 18 -34 41 -52 52 -32 19 -52 20 -850 20 l-816 0 -4 89 c-3 96 -15
123 -72 165 -27 21 -33 21 -1239 23 -1176 2 -1213 2 -1248 -17z"/>
<path d="M384 11799 c-42 -12 -91 -69 -100 -115 -9 -51 3 -2650 15 -3144 26
-1033 54 -1651 87 -1875 79 -538 458 -1345 1052 -2237 157 -236 177 -259 260
-300 l67 -33 1305 0 1305 0 47 22 c79 36 131 96 281 321 352 529 636 1041 811
1460 l64 153 663 522 c516 406 671 533 696 571 67 99 63 -35 63 1950 0 1778
-1 1802 -20 1845 -42 91 -56 99 -433 221 -188 61 -420 137 -515 168 l-172 57
-3 155 c-2 142 -4 158 -25 192 -13 21 -40 45 -66 57 l-42 21 -2655 -1 c-1566
0 -2667 -5 -2685 -10z m5725 -1077 c112 -36 218 -75 235 -87 17 -11 44 -40 61
-64 l30 -43 0 -1516 0 -1517 -29 -57 c-16 -31 -43 -71 -61 -88 -31 -30 -568
-450 -571 -447 -1 1 4 103 11 227 16 273 32 712 45 1235 13 525 32 2092 28
2283 l-3 153 25 -6 c14 -3 117 -36 229 -73z"/>
<path d="M1455 3866 c-54 -25 -107 -78 -129 -129 -8 -18 -64 -147 -126 -287
-424 -966 -768 -1867 -880 -2307 -56 -222 -64 -305 -58 -683 6 -338 9 -363 51
-409 50 -54 -125 -51 2759 -51 l2673 0 39 23 c72 40 78 62 88 301 11 245 4
521 -17 639 -69 398 -396 1281 -927 2504 -111 256 -140 314 -174 349 -79 80
54 74 -1693 74 l-1556 0 -50 -24z"/>
</g>
</svg>
